G04 MADE WITH FRITZING*
G04 WWW.FRITZING.ORG*
G04 DOUBLE SIDED*
G04 HOLES PLATED*
G04 CONTOUR ON CENTER OF CONTOUR VECTOR*
%ASAXBY*%
%FSLAX23Y23*%
%MOIN*%
%OFA0B0*%
%SFA1.0B1.0*%
%ADD10C,0.074000*%
%ADD11C,0.070000*%
%ADD12C,0.024000*%
%ADD13R,0.001000X0.001000*%
%LNCOPPER0*%
G90*
G70*
G54D10*
X2244Y1833D03*
X2194Y1733D03*
X2144Y1833D03*
X2044Y1833D03*
X1944Y1833D03*
X2094Y1733D03*
X1994Y1733D03*
X1894Y1733D03*
G54D11*
X3244Y1733D03*
X3144Y1733D03*
X3244Y1733D03*
X3144Y1733D03*
G54D12*
X2275Y1830D02*
X3118Y1736D01*
G54D13*
X1857Y1770D02*
X1930Y1770D01*
X1857Y1769D02*
X1930Y1769D01*
X1857Y1768D02*
X1930Y1768D01*
X1857Y1767D02*
X1930Y1767D01*
X1857Y1766D02*
X1930Y1766D01*
X1857Y1765D02*
X1930Y1765D01*
X1857Y1764D02*
X1930Y1764D01*
X1857Y1763D02*
X1930Y1763D01*
X1857Y1762D02*
X1930Y1762D01*
X1857Y1761D02*
X1930Y1761D01*
X1857Y1760D02*
X1930Y1760D01*
X1857Y1759D02*
X1930Y1759D01*
X1857Y1758D02*
X1930Y1758D01*
X1857Y1757D02*
X1930Y1757D01*
X1857Y1756D02*
X1930Y1756D01*
X1857Y1755D02*
X1930Y1755D01*
X1857Y1754D02*
X1930Y1754D01*
X1857Y1753D02*
X1890Y1753D01*
X1898Y1753D02*
X1930Y1753D01*
X1857Y1752D02*
X1886Y1752D01*
X1901Y1752D02*
X1930Y1752D01*
X1857Y1751D02*
X1884Y1751D01*
X1903Y1751D02*
X1930Y1751D01*
X1857Y1750D02*
X1882Y1750D01*
X1905Y1750D02*
X1930Y1750D01*
X1857Y1749D02*
X1881Y1749D01*
X1906Y1749D02*
X1930Y1749D01*
X1857Y1748D02*
X1880Y1748D01*
X1908Y1748D02*
X1930Y1748D01*
X1857Y1747D02*
X1879Y1747D01*
X1909Y1747D02*
X1930Y1747D01*
X1857Y1746D02*
X1878Y1746D01*
X1909Y1746D02*
X1930Y1746D01*
X1857Y1745D02*
X1877Y1745D01*
X1910Y1745D02*
X1930Y1745D01*
X1857Y1744D02*
X1877Y1744D01*
X1911Y1744D02*
X1930Y1744D01*
X1857Y1743D02*
X1876Y1743D01*
X1911Y1743D02*
X1930Y1743D01*
X1857Y1742D02*
X1875Y1742D01*
X1912Y1742D02*
X1930Y1742D01*
X1857Y1741D02*
X1875Y1741D01*
X1912Y1741D02*
X1930Y1741D01*
X1857Y1740D02*
X1875Y1740D01*
X1913Y1740D02*
X1930Y1740D01*
X1857Y1739D02*
X1874Y1739D01*
X1913Y1739D02*
X1930Y1739D01*
X1857Y1738D02*
X1874Y1738D01*
X1913Y1738D02*
X1930Y1738D01*
X1857Y1737D02*
X1874Y1737D01*
X1914Y1737D02*
X1930Y1737D01*
X1857Y1736D02*
X1874Y1736D01*
X1914Y1736D02*
X1930Y1736D01*
X1857Y1735D02*
X1874Y1735D01*
X1914Y1735D02*
X1930Y1735D01*
X1857Y1734D02*
X1874Y1734D01*
X1914Y1734D02*
X1930Y1734D01*
X1857Y1733D02*
X1874Y1733D01*
X1914Y1733D02*
X1930Y1733D01*
X1857Y1732D02*
X1874Y1732D01*
X1914Y1732D02*
X1930Y1732D01*
X1857Y1731D02*
X1874Y1731D01*
X1914Y1731D02*
X1930Y1731D01*
X1857Y1730D02*
X1874Y1730D01*
X1914Y1730D02*
X1930Y1730D01*
X1857Y1729D02*
X1874Y1729D01*
X1913Y1729D02*
X1930Y1729D01*
X1857Y1728D02*
X1874Y1728D01*
X1913Y1728D02*
X1930Y1728D01*
X1857Y1727D02*
X1875Y1727D01*
X1913Y1727D02*
X1930Y1727D01*
X1857Y1726D02*
X1875Y1726D01*
X1912Y1726D02*
X1930Y1726D01*
X1857Y1725D02*
X1876Y1725D01*
X1912Y1725D02*
X1930Y1725D01*
X1857Y1724D02*
X1876Y1724D01*
X1911Y1724D02*
X1930Y1724D01*
X1857Y1723D02*
X1877Y1723D01*
X1911Y1723D02*
X1930Y1723D01*
X1857Y1722D02*
X1877Y1722D01*
X1910Y1722D02*
X1930Y1722D01*
X1857Y1721D02*
X1878Y1721D01*
X1909Y1721D02*
X1930Y1721D01*
X1857Y1720D02*
X1879Y1720D01*
X1908Y1720D02*
X1930Y1720D01*
X1857Y1719D02*
X1880Y1719D01*
X1907Y1719D02*
X1930Y1719D01*
X1857Y1718D02*
X1881Y1718D01*
X1906Y1718D02*
X1930Y1718D01*
X1857Y1717D02*
X1883Y1717D01*
X1905Y1717D02*
X1930Y1717D01*
X1857Y1716D02*
X1885Y1716D01*
X1903Y1716D02*
X1930Y1716D01*
X1857Y1715D02*
X1887Y1715D01*
X1900Y1715D02*
X1930Y1715D01*
X1857Y1714D02*
X1930Y1714D01*
X1857Y1713D02*
X1930Y1713D01*
X1857Y1712D02*
X1930Y1712D01*
X1857Y1711D02*
X1930Y1711D01*
X1857Y1710D02*
X1930Y1710D01*
X1857Y1709D02*
X1930Y1709D01*
X1857Y1708D02*
X1930Y1708D01*
X1857Y1707D02*
X1930Y1707D01*
X1857Y1706D02*
X1930Y1706D01*
X1857Y1705D02*
X1930Y1705D01*
X1857Y1704D02*
X1930Y1704D01*
X1857Y1703D02*
X1930Y1703D01*
X1857Y1702D02*
X1930Y1702D01*
X1857Y1701D02*
X1930Y1701D01*
X1857Y1700D02*
X1930Y1700D01*
X1857Y1699D02*
X1930Y1699D01*
X1857Y1698D02*
X1930Y1698D01*
X1857Y1697D02*
X1930Y1697D01*
D02*
G04 End of Copper0*
M02*