G04 MADE WITH FRITZING*
G04 WWW.FRITZING.ORG*
G04 DOUBLE SIDED*
G04 HOLES PLATED*
G04 CONTOUR ON CENTER OF CONTOUR VECTOR*
%ASAXBY*%
%FSLAX23Y23*%
%MOIN*%
%OFA0B0*%
%SFA1.0B1.0*%
%ADD10R,3.333330X2.222220X3.317330X2.206220*%
%ADD11C,0.008000*%
%ADD12R,0.001000X0.001000*%
%LNSILK0*%
G90*
G70*
G54D11*
X4Y2218D02*
X3329Y2218D01*
X3329Y4D01*
X4Y4D01*
X4Y2218D01*
D02*
G54D12*
X3026Y1853D02*
X3044Y1853D01*
X3064Y1853D02*
X3080Y1853D01*
X3026Y1852D02*
X3045Y1852D01*
X3062Y1852D02*
X3083Y1852D01*
X3026Y1851D02*
X3045Y1851D01*
X3062Y1851D02*
X3084Y1851D01*
X3026Y1850D02*
X3045Y1850D01*
X3062Y1850D02*
X3085Y1850D01*
X3026Y1849D02*
X3045Y1849D01*
X3062Y1849D02*
X3086Y1849D01*
X3026Y1848D02*
X3045Y1848D01*
X3062Y1848D02*
X3086Y1848D01*
X3026Y1847D02*
X3044Y1847D01*
X3064Y1847D02*
X3087Y1847D01*
X3026Y1846D02*
X3032Y1846D01*
X3080Y1846D02*
X3087Y1846D01*
X3026Y1845D02*
X3032Y1845D01*
X3081Y1845D02*
X3088Y1845D01*
X3026Y1844D02*
X3032Y1844D01*
X3081Y1844D02*
X3088Y1844D01*
X3026Y1843D02*
X3032Y1843D01*
X3082Y1843D02*
X3089Y1843D01*
X3026Y1842D02*
X3032Y1842D01*
X3083Y1842D02*
X3089Y1842D01*
X3026Y1841D02*
X3032Y1841D01*
X3083Y1841D02*
X3090Y1841D01*
X3026Y1840D02*
X3032Y1840D01*
X3084Y1840D02*
X3090Y1840D01*
X3026Y1839D02*
X3032Y1839D01*
X3084Y1839D02*
X3091Y1839D01*
X3026Y1838D02*
X3032Y1838D01*
X3085Y1838D02*
X3091Y1838D01*
X3026Y1837D02*
X3032Y1837D01*
X3085Y1837D02*
X3092Y1837D01*
X3026Y1836D02*
X3032Y1836D01*
X3086Y1836D02*
X3092Y1836D01*
X3026Y1835D02*
X3032Y1835D01*
X3086Y1835D02*
X3093Y1835D01*
X3026Y1834D02*
X3032Y1834D01*
X3087Y1834D02*
X3093Y1834D01*
X3026Y1833D02*
X3032Y1833D01*
X3087Y1833D02*
X3094Y1833D01*
X3026Y1832D02*
X3032Y1832D01*
X3088Y1832D02*
X3094Y1832D01*
X3026Y1831D02*
X3032Y1831D01*
X3088Y1831D02*
X3095Y1831D01*
X3026Y1830D02*
X3032Y1830D01*
X3089Y1830D02*
X3095Y1830D01*
X3026Y1829D02*
X3032Y1829D01*
X3089Y1829D02*
X3095Y1829D01*
X3026Y1828D02*
X3032Y1828D01*
X3089Y1828D02*
X3095Y1828D01*
X3026Y1827D02*
X3032Y1827D01*
X3089Y1827D02*
X3095Y1827D01*
X3026Y1826D02*
X3032Y1826D01*
X3089Y1826D02*
X3095Y1826D01*
X3026Y1825D02*
X3032Y1825D01*
X3089Y1825D02*
X3095Y1825D01*
X3015Y1824D02*
X3015Y1824D01*
X3026Y1824D02*
X3032Y1824D01*
X3089Y1824D02*
X3095Y1824D01*
X3013Y1823D02*
X3017Y1823D01*
X3026Y1823D02*
X3032Y1823D01*
X3089Y1823D02*
X3095Y1823D01*
X3012Y1822D02*
X3017Y1822D01*
X3026Y1822D02*
X3032Y1822D01*
X3088Y1822D02*
X3095Y1822D01*
X3012Y1821D02*
X3018Y1821D01*
X3026Y1821D02*
X3032Y1821D01*
X3088Y1821D02*
X3094Y1821D01*
X3012Y1820D02*
X3018Y1820D01*
X3026Y1820D02*
X3032Y1820D01*
X3087Y1820D02*
X3094Y1820D01*
X3012Y1819D02*
X3018Y1819D01*
X3026Y1819D02*
X3032Y1819D01*
X3087Y1819D02*
X3093Y1819D01*
X3012Y1818D02*
X3018Y1818D01*
X3026Y1818D02*
X3032Y1818D01*
X3086Y1818D02*
X3093Y1818D01*
X3012Y1817D02*
X3018Y1817D01*
X3026Y1817D02*
X3032Y1817D01*
X3086Y1817D02*
X3092Y1817D01*
X3012Y1816D02*
X3018Y1816D01*
X3026Y1816D02*
X3032Y1816D01*
X3085Y1816D02*
X3092Y1816D01*
X3012Y1815D02*
X3018Y1815D01*
X3026Y1815D02*
X3032Y1815D01*
X3085Y1815D02*
X3091Y1815D01*
X3012Y1814D02*
X3018Y1814D01*
X3026Y1814D02*
X3032Y1814D01*
X3084Y1814D02*
X3091Y1814D01*
X3012Y1813D02*
X3018Y1813D01*
X3026Y1813D02*
X3032Y1813D01*
X3084Y1813D02*
X3090Y1813D01*
X3012Y1812D02*
X3018Y1812D01*
X3026Y1812D02*
X3032Y1812D01*
X3083Y1812D02*
X3090Y1812D01*
X3012Y1811D02*
X3018Y1811D01*
X3026Y1811D02*
X3032Y1811D01*
X3083Y1811D02*
X3089Y1811D01*
X3012Y1810D02*
X3018Y1810D01*
X3026Y1810D02*
X3032Y1810D01*
X3082Y1810D02*
X3089Y1810D01*
X3012Y1809D02*
X3018Y1809D01*
X3026Y1809D02*
X3032Y1809D01*
X3082Y1809D02*
X3088Y1809D01*
X3012Y1808D02*
X3018Y1808D01*
X3026Y1808D02*
X3032Y1808D01*
X3081Y1808D02*
X3088Y1808D01*
X3012Y1807D02*
X3018Y1807D01*
X3026Y1807D02*
X3032Y1807D01*
X3080Y1807D02*
X3087Y1807D01*
X3012Y1806D02*
X3043Y1806D01*
X3064Y1806D02*
X3087Y1806D01*
X3012Y1805D02*
X3044Y1805D01*
X3063Y1805D02*
X3086Y1805D01*
X3012Y1804D02*
X3045Y1804D01*
X3062Y1804D02*
X3086Y1804D01*
X3012Y1803D02*
X3045Y1803D01*
X3062Y1803D02*
X3085Y1803D01*
X3012Y1802D02*
X3045Y1802D01*
X3062Y1802D02*
X3084Y1802D01*
X3012Y1801D02*
X3045Y1801D01*
X3062Y1801D02*
X3083Y1801D01*
X3013Y1800D02*
X3044Y1800D01*
X3063Y1800D02*
X3081Y1800D01*
X3189Y1767D02*
X3199Y1767D01*
X3184Y1766D02*
X3203Y1766D01*
X3182Y1765D02*
X3206Y1765D01*
X3179Y1764D02*
X3208Y1764D01*
X3177Y1763D02*
X3210Y1763D01*
X3176Y1762D02*
X3211Y1762D01*
X3174Y1761D02*
X3213Y1761D01*
X3174Y1760D02*
X3213Y1760D01*
X3175Y1759D02*
X3187Y1759D01*
X3200Y1759D02*
X3212Y1759D01*
X3176Y1758D02*
X3184Y1758D01*
X3203Y1758D02*
X3211Y1758D01*
X3176Y1757D02*
X3182Y1757D01*
X3205Y1757D02*
X3211Y1757D01*
X3177Y1756D02*
X3180Y1756D01*
X3207Y1756D02*
X3210Y1756D01*
X3178Y1755D02*
X3179Y1755D01*
X3209Y1755D02*
X3209Y1755D01*
X3177Y1712D02*
X3179Y1712D01*
X3208Y1712D02*
X3210Y1712D01*
X3177Y1711D02*
X3181Y1711D01*
X3207Y1711D02*
X3210Y1711D01*
X3176Y1710D02*
X3182Y1710D01*
X3205Y1710D02*
X3211Y1710D01*
X3175Y1709D02*
X3185Y1709D01*
X3202Y1709D02*
X3212Y1709D01*
X3175Y1708D02*
X3188Y1708D01*
X3199Y1708D02*
X3212Y1708D01*
X3174Y1707D02*
X3213Y1707D01*
X3175Y1706D02*
X3212Y1706D01*
X3176Y1705D02*
X3211Y1705D01*
X3178Y1704D02*
X3209Y1704D01*
X3180Y1703D02*
X3207Y1703D01*
X3182Y1702D02*
X3205Y1702D01*
X3186Y1701D02*
X3202Y1701D01*
X3191Y1700D02*
X3196Y1700D01*
D02*
G04 End of Silk0*
M02*